<svg xmlns="http://www.w3.org/2000/svg" viewBox="0 0 96 96"><defs><style>.cls-1{fill:#c3161c;}</style></defs><title>tk_logo</title><g id="Layer_1" data-name="Layer 1"><path class="cls-1" d="M94,0H3C1.9,0,0,1.9,0,3V94a2,2,0,0,0,2,2H94a2,2,0,0,0,2-2V2A2,2,0,0,0,94,0ZM92,88a4,4,0,0,1-4,4H8a4,4,0,0,1-4-4V8A4,4,0,0,1,8,4H88a4,4,0,0,1,4,4Z"/><path class="cls-1" d="M52,32v6c6,0,12,1,16,0V32C66,31,52,32,52,32Z"/><path class="cls-1" d="M34,76c9,1,30.3,0,32,0a2,2,0,0,0,2-2V64s-32-2-34,0S34,76,34,76Z"/><path class="cls-1" d="M52,48H66a2,2,0,0,0,2-2V42H52Z"/><path class="cls-1" d="M84,8H12a4,4,0,0,0-4,4V84a4,4,0,0,0,4,4H84a4,4,0,0,0,4-4V12A4,4,0,0,0,84,8ZM49.33,10A2.73,2.73,0,0,1,52,13a2.73,2.73,0,0,1-2.67,3S48,16,48,13,49.33,10,49.33,10ZM72,76v2c0,2-4,2-4,2H32l-.2,0C30,79.88,30,78.63,30,78.63V61.37C30,60,32,60,32,60H68c4,0,4,2,4,2Zm1.42-34H72v8c0,2-4,2-4,2H52v1s0,3-2,3-2-3-2-3V52H34s-4,0-4-2,4-2,4-2a53.6,53.6,0,0,0,14,0c0-1,1,0,0-6H31s-4,0-4-2,4-2,4-2H48V32H34s-4,0-4-2,4-2,4-2H48V27c0-3,2-3,2-3,2,0,2,3,2,3v1H68c4,0,4,2,4,2v8h1.42C76,38,76,40,76,40,76,42,73.42,42,73.42,42ZM78,22.22S74,22,54,22c-8.29,0-26.28-2.21-30,3-5,7-2.43,54.78-4.22,56.89,0,0,0,2.11-1.78,2.11s-1.78-2.11-1.78-2.11S18,28.54,18,24.32V22c0-4,4-4,4-4H78a1.87,1.87,0,0,1,1.78,2.11A1.87,1.87,0,0,1,78,22.22Z"/></g></svg>